<?xml version="1.0" encoding="UTF-8" ?>
<!DOCTYPE svg PUBLIC "-//W3C//DTD SVG 1.1//EN" "http://www.w3.org/Graphics/SVG/1.1/DTD/svg11.dtd">
<svg width="138pt" height="100pt" viewBox="0 0 138 100" version="1.1" xmlns="http://www.w3.org/2000/svg">
<g id="#214c79ff">
<path fill="#214c79" opacity="1.00" d=" M 2.70 2.64 C 4.14 2.65 5.59 2.66 7.03 2.67 C 5.55 3.77 3.40 4.75 3.83 6.99 C 3.64 19.30 4.10 31.63 3.95 43.95 C 3.91 49.22 5.73 54.25 6.59 59.41 C 7.59 59.74 8.59 60.08 9.58 60.42 C 10.55 65.43 11.57 70.42 12.59 75.42 C 13.69 75.78 14.79 76.13 15.90 76.49 C 16.19 81.90 16.31 87.32 16.24 92.74 C 24.12 92.99 32.01 93.28 39.90 93.22 L 40.02 94.39 C 28.67 94.40 17.31 94.37 5.96 94.39 C 4.46 94.69 2.55 93.85 2.75 92.08 C 2.65 62.27 2.72 32.46 2.70 2.64 Z" />
</g>
<g id="#225885ff">
<path fill="#225885" opacity="1.00" d=" M 7.03 2.67 C 10.82 2.53 14.61 2.68 18.40 2.74 C 14.91 3.46 11.84 5.26 8.93 7.23 C 10.39 7.93 11.86 8.63 13.32 9.32 C 14.60 13.81 15.80 18.37 16.05 23.05 C 16.28 27.10 16.12 31.34 17.80 35.13 C 18.95 37.76 21.50 39.31 23.59 41.12 C 23.87 44.58 24.05 48.05 24.20 51.52 C 25.39 51.87 26.58 52.22 27.77 52.57 C 27.88 55.86 28.02 59.14 28.27 62.42 C 29.58 64.43 30.91 66.44 31.95 68.62 C 32.07 69.03 32.32 69.85 32.45 70.26 C 32.29 71.73 32.11 73.20 32.14 74.68 C 33.14 75.50 34.25 76.18 35.33 76.89 C 35.77 77.73 36.20 78.56 36.64 79.40 C 37.66 79.79 38.68 80.18 39.70 80.58 C 39.37 84.78 39.36 89.02 39.90 93.22 C 32.01 93.28 24.12 92.99 16.24 92.74 C 16.31 87.32 16.19 81.90 15.90 76.49 C 14.79 76.13 13.69 75.78 12.59 75.42 C 11.57 70.42 10.55 65.43 9.58 60.42 C 8.59 60.08 7.59 59.74 6.59 59.41 C 5.73 54.25 3.91 49.22 3.95 43.95 C 4.10 31.63 3.64 19.30 3.83 6.99 C 3.40 4.75 5.55 3.77 7.03 2.67 Z" />
</g>
<g id="#216292ff">
<path fill="#216292" opacity="1.00" d=" M 18.40 2.74 C 22.77 2.44 27.17 2.71 31.55 2.56 C 28.92 6.29 30.16 10.75 30.97 14.85 C 31.88 18.64 31.23 23.67 35.59 25.39 C 34.35 25.98 33.11 26.57 31.90 27.20 C 31.72 41.00 31.55 54.83 31.95 68.62 C 30.91 66.44 29.58 64.43 28.27 62.42 C 28.02 59.14 27.88 55.86 27.77 52.57 C 26.58 52.22 25.39 51.87 24.20 51.52 C 24.05 48.05 23.87 44.58 23.59 41.12 C 21.50 39.31 18.95 37.76 17.80 35.13 C 16.12 31.34 16.28 27.10 16.05 23.05 C 15.80 18.37 14.60 13.81 13.32 9.32 C 11.86 8.63 10.39 7.93 8.93 7.23 C 11.84 5.26 14.91 3.46 18.40 2.74 Z" />
</g>
<g id="#2370a0ff">
<path fill="#2370a0" opacity="1.00" d=" M 31.55 2.56 C 38.32 2.88 45.25 2.18 51.90 3.08 L 52.63 3.66 C 49.03 3.86 45.43 4.03 41.83 4.18 C 44.91 11.55 42.73 20.91 48.94 26.92 C 52.89 28.19 57.11 28.24 61.20 28.82 C 60.03 37.02 63.08 45.04 62.11 53.23 L 61.40 53.19 C 62.16 45.13 58.70 37.45 59.71 29.38 C 52.58 30.20 46.08 26.28 38.99 26.73 C 36.62 26.74 34.25 26.95 31.90 27.20 C 33.11 26.57 34.35 25.98 35.59 25.39 C 31.23 23.67 31.88 18.64 30.97 14.85 C 30.16 10.75 28.92 6.29 31.55 2.56 Z" />
</g>
<g id="#2680b5ff">
<path fill="#2680b5" opacity="1.00" d=" M 51.90 3.08 C 57.81 3.37 63.69 4.74 68.96 7.47 C 68.01 7.90 67.06 8.32 66.11 8.75 C 66.76 13.15 66.74 17.70 68.08 21.97 C 69.69 24.37 72.37 25.82 74.65 27.51 C 73.30 27.52 71.96 27.55 70.62 27.58 C 70.61 29.19 70.61 30.79 70.60 32.39 C 72.16 32.40 73.72 32.42 75.28 32.43 C 75.13 33.30 74.97 34.17 74.80 35.04 C 74.90 35.84 75.01 36.64 75.12 37.44 C 75.27 38.40 75.41 39.36 75.56 40.31 C 74.85 41.06 74.15 41.82 73.46 42.59 C 72.69 42.60 71.16 42.63 70.39 42.64 C 70.40 44.21 70.41 45.79 70.43 47.37 C 71.20 47.38 72.73 47.38 73.50 47.38 C 74.14 48.14 74.78 48.90 75.44 49.66 C 75.42 50.37 75.40 51.80 75.39 52.51 C 76.91 52.49 78.44 52.46 79.97 52.43 C 79.50 53.31 79.02 54.18 78.53 55.05 C 79.91 57.91 81.31 60.76 82.68 63.62 C 84.01 63.85 85.33 64.08 86.66 64.31 C 87.14 64.40 88.12 64.57 88.60 64.66 C 87.19 68.94 85.83 73.33 83.24 77.08 C 82.76 77.11 81.79 77.16 81.30 77.19 C 81.16 74.35 80.96 71.51 80.79 68.68 C 78.09 68.69 75.40 68.71 72.71 68.74 C 72.67 71.57 72.64 74.41 72.51 77.24 C 72.13 74.60 71.80 71.94 71.47 69.29 C 66.80 69.10 62.11 69.11 57.44 68.86 C 57.43 68.73 57.41 68.48 57.40 68.35 C 62.36 68.37 67.33 68.37 72.29 68.33 C 72.29 63.34 72.28 58.35 72.30 53.36 C 68.90 53.28 65.50 53.33 62.11 53.23 C 63.08 45.04 60.03 37.02 61.20 28.82 C 61.21 25.25 59.93 21.89 58.63 18.63 C 56.57 13.66 55.76 8.15 52.63 3.66 L 51.90 3.08 Z" />
</g>
<g id="#2579abff">
<path fill="#2579ab" opacity="1.00" d=" M 41.83 4.18 C 45.43 4.03 49.03 3.86 52.63 3.66 C 55.76 8.15 56.57 13.66 58.63 18.63 C 59.93 21.89 61.21 25.25 61.20 28.82 C 57.11 28.24 52.89 28.19 48.94 26.92 C 42.73 20.91 44.91 11.55 41.83 4.18 Z" />
</g>
<g id="#298bc0ff">
<path fill="#298bc0" opacity="1.00" d=" M 66.11 8.75 C 67.06 8.32 68.01 7.90 68.96 7.47 L 69.14 7.40 C 74.53 10.58 79.54 14.64 82.95 19.96 C 86.88 25.73 88.81 32.57 89.85 39.40 C 88.95 39.41 87.14 39.43 86.23 39.44 C 86.22 42.19 86.22 44.95 86.21 47.70 C 87.61 47.69 89.01 47.69 90.41 47.69 C 90.53 51.68 90.24 55.66 89.55 59.59 C 88.83 59.62 87.39 59.68 86.67 59.71 C 86.66 61.24 86.66 62.78 86.66 64.31 C 85.33 64.08 84.01 63.85 82.68 63.62 C 81.31 60.76 79.91 57.91 78.53 55.05 C 79.02 54.18 79.50 53.31 79.97 52.43 C 80.17 50.84 80.21 49.24 80.30 47.65 C 79.52 47.74 77.97 47.93 77.19 48.02 C 76.36 46.96 75.57 45.88 74.80 44.78 C 76.02 43.12 78.01 42.48 79.61 41.29 C 80.03 40.10 80.37 38.88 80.62 37.63 C 78.79 37.55 76.95 37.49 75.12 37.44 C 75.01 36.64 74.90 35.84 74.80 35.04 C 74.97 34.17 75.13 33.30 75.28 32.43 C 75.50 30.85 75.60 29.25 75.71 27.66 C 75.44 27.63 74.91 27.55 74.65 27.51 C 72.37 25.82 69.69 24.37 68.08 21.97 C 66.74 17.70 66.76 13.15 66.11 8.75 Z" />
</g>
<g id="#2da2ddff">
<path fill="#2da2dd" opacity="1.00" d=" M 116.43 23.57 C 119.07 23.56 121.70 23.57 124.34 23.57 C 124.34 26.24 124.35 28.90 124.36 31.56 C 121.70 31.57 119.05 31.57 116.39 31.56 C 116.39 28.90 116.40 26.24 116.43 23.57 Z" />
</g>
<g id="#0206070d">
<path fill="#020607" opacity="0.05" d=" M 70.62 27.58 C 71.96 27.55 73.30 27.52 74.65 27.51 C 74.91 27.55 75.44 27.63 75.71 27.66 C 75.60 29.25 75.50 30.85 75.28 32.43 C 73.72 32.42 72.16 32.40 70.60 32.39 C 70.61 30.79 70.61 29.19 70.62 27.58 Z" />
</g>
<g id="#2897c8ff">
<path fill="#2897c8" opacity="1.00" d=" M 91.61 46.37 C 91.85 44.72 91.08 40.87 94.00 41.68 C 96.82 41.16 96.09 44.73 96.37 46.37 C 94.78 46.37 93.19 46.37 91.61 46.37 Z" />
</g>
<g id="#299ad2ff">
<path fill="#299ad2" opacity="1.00" d=" M 98.45 55.55 C 98.46 51.26 98.43 46.96 98.47 42.67 C 102.74 42.68 107.02 42.67 111.29 42.67 C 111.29 46.96 111.27 51.25 111.31 55.54 C 107.02 55.56 102.73 55.55 98.45 55.55 Z" />
</g>
<g id="#2d9fdaff">
<path fill="#2d9fda" opacity="1.00" d=" M 111.76 56.40 C 114.10 56.35 116.45 56.33 118.79 56.31 C 118.80 58.81 118.80 61.30 118.79 63.80 C 116.45 63.79 114.11 63.78 111.78 63.74 C 111.77 61.30 111.77 58.85 111.76 56.40 Z" />
</g>
<g id="#2473a3ff">
<path fill="#2473a3" opacity="1.00" d=" M 52.09 67.74 C 53.92 66.38 55.60 64.82 57.27 63.26 C 57.29 64.96 57.32 66.66 57.40 68.35 C 57.41 68.48 57.43 68.73 57.44 68.86 C 62.11 69.11 66.80 69.10 71.47 69.29 C 71.80 71.94 72.13 74.60 72.51 77.24 C 75.44 77.22 78.37 77.25 81.30 77.19 C 81.79 77.16 82.76 77.11 83.24 77.08 C 78.31 85.40 69.63 90.84 60.37 93.11 C 60.38 92.70 60.38 91.88 60.39 91.47 C 59.47 90.93 58.55 90.38 57.64 89.84 C 57.32 87.21 56.91 84.60 56.45 82.00 C 56.71 80.90 56.98 79.79 57.21 78.68 C 57.35 77.26 57.40 75.83 57.44 74.41 C 54.75 73.01 52.85 70.70 52.09 67.74 Z" />
</g>
<g id="#2c98d1fa">
<path fill="#2c98d1" opacity="0.98" d=" M 130.70 63.39 C 131.99 63.34 133.28 63.31 134.57 63.28 C 134.53 64.61 134.49 65.94 134.45 67.26 C 133.22 67.23 132.01 67.21 130.79 67.18 C 130.76 65.91 130.73 64.65 130.70 63.39 Z" />
</g>
<g id="#216492ff">
<path fill="#216492" opacity="1.00" d=" M 32.45 70.26 C 39.06 70.45 45.98 70.70 52.09 67.74 C 52.85 70.70 54.75 73.01 57.44 74.41 C 55.91 74.36 54.38 74.32 52.85 74.29 C 52.84 75.74 52.83 77.19 52.82 78.64 C 54.28 78.66 55.74 78.67 57.21 78.68 C 56.98 79.79 56.71 80.90 56.45 82.00 C 56.91 84.60 57.32 87.21 57.64 89.84 C 58.55 90.38 59.47 90.93 60.39 91.47 C 60.38 91.88 60.38 92.70 60.37 93.11 C 53.66 94.34 46.82 94.38 40.02 94.39 L 39.90 93.22 C 39.36 89.02 39.37 84.78 39.70 80.58 C 38.68 80.18 37.66 79.79 36.64 79.40 C 36.20 78.56 35.77 77.73 35.33 76.89 C 34.25 76.18 33.14 75.50 32.14 74.68 C 32.11 73.20 32.29 71.73 32.45 70.26 Z" />
</g>
<g id="#298cc0ff">
<path fill="#298cc0" opacity="1.00" d=" M 87.38 72.22 C 90.05 72.21 92.71 72.21 95.38 72.22 C 95.37 74.63 95.37 77.04 95.36 79.46 C 99.70 79.45 104.05 79.44 108.39 79.45 C 108.41 84.04 108.42 88.62 108.38 93.21 C 104.02 93.21 99.66 93.21 95.30 93.22 C 95.17 88.92 95.20 84.61 95.24 80.31 C 92.64 80.15 90.05 79.93 87.45 79.75 C 87.44 77.24 87.41 74.73 87.38 72.22 Z" />
</g>
</svg>
